<?xml version="1.0" encoding="UTF-8"?>
<svg id="Layer_2" data-name="Layer 2" xmlns="http://www.w3.org/2000/svg" viewBox="0 0 3228.14 1043.57">
  <defs>
    <style>
      .cls-1 {
        fill: #7bb4f8;
      }

      .cls-1, .cls-2, .cls-3, .cls-4, .cls-5 {
        stroke-width: 0px;
      }

      .cls-2, .cls-5 {
        fill: #58c;
      }

      .cls-3, .cls-4 {
        fill: #9fcaff;
      }

      .cls-4, .cls-5 {
        opacity: .29;
      }
    </style>
  </defs>
  <g id="Object">
    <g>
      <g>
        <rect class="cls-3" x="881.81" y="340.26" width="142.45" height="567"/>
        <rect class="cls-3" x="905.08" y="299.61" width="95.9" height="238.27"/>
        <rect class="cls-3" x="926.44" y="273.82" width="53.19" height="132.17"/>
        <polygon class="cls-3" points="971.16 341.74 934.91 341.74 934.91 251.67 947.99 251.67 960.94 251.67 971.16 251.67 971.16 341.74"/>
        <g>
          <polygon class="cls-3" points="950.64 302.52 946.71 302.52 946.71 212.45 948.13 212.45 949.54 212.45 950.64 212.45 950.64 302.52"/>
          <polygon class="cls-3" points="959.35 271.38 955.42 271.38 955.42 181.31 956.84 181.31 958.24 181.31 959.35 181.31 959.35 271.38"/>
        </g>
        <rect class="cls-3" x="878.01" y="338.81" width="150.05" height="6.04"/>
        <rect class="cls-3" x="901.58" y="296.7" width="102.9" height="5.81"/>
        <rect class="cls-3" x="922.56" y="271.38" width="59.3" height="4.46"/>
        <rect class="cls-4" x="913.9" y="309.28" width="4.46" height="24.97"/>
        <rect class="cls-4" x="926.24" y="309.28" width="4.46" height="24.97"/>
        <rect class="cls-4" x="938.57" y="309.28" width="4.46" height="24.97"/>
        <rect class="cls-4" x="950.91" y="309.28" width="4.46" height="24.97"/>
        <rect class="cls-4" x="963.24" y="309.28" width="4.46" height="24.97"/>
        <rect class="cls-4" x="975.58" y="309.28" width="4.46" height="24.97"/>
        <rect class="cls-4" x="987.91" y="309.28" width="4.46" height="24.97"/>
        <rect class="cls-3" x="894.31" y="362.87" width="10.77" height="29.62"/>
        <rect class="cls-4" x="915.64" y="362.87" width="10.77" height="29.62"/>
        <rect class="cls-3" x="936.98" y="362.87" width="10.77" height="29.62"/>
        <rect class="cls-3" x="958.31" y="362.87" width="10.77" height="29.62"/>
        <rect class="cls-3" x="979.65" y="362.87" width="10.77" height="29.62"/>
        <rect class="cls-3" x="1000.98" y="362.87" width="10.77" height="29.62"/>
        <rect class="cls-3" x="894.31" y="409.04" width="10.77" height="29.62"/>
        <rect class="cls-3" x="915.64" y="409.04" width="10.77" height="29.62"/>
        <rect class="cls-3" x="936.98" y="409.04" width="10.77" height="29.62"/>
        <rect class="cls-4" x="958.31" y="409.04" width="10.77" height="29.62"/>
        <rect class="cls-3" x="979.65" y="409.04" width="10.77" height="29.62"/>
        <rect class="cls-3" x="1000.98" y="409.04" width="10.77" height="29.62"/>
        <rect class="cls-3" x="894.31" y="455.21" width="10.77" height="29.62"/>
        <rect class="cls-3" x="915.64" y="455.21" width="10.77" height="29.62"/>
        <rect class="cls-3" x="936.98" y="455.21" width="10.77" height="29.62"/>
        <rect class="cls-3" x="958.31" y="455.21" width="10.77" height="29.62"/>
        <rect class="cls-4" x="979.65" y="455.21" width="10.77" height="29.62"/>
        <rect class="cls-4" x="1000.98" y="455.21" width="10.77" height="29.62"/>
        <rect class="cls-4" x="894.31" y="501.38" width="10.77" height="29.62"/>
        <rect class="cls-3" x="915.64" y="501.38" width="10.77" height="29.62"/>
        <rect class="cls-3" x="936.98" y="501.38" width="10.77" height="29.62"/>
        <rect class="cls-3" x="958.31" y="501.38" width="10.77" height="29.62"/>
        <rect class="cls-3" x="979.65" y="501.38" width="10.77" height="29.62"/>
        <rect class="cls-3" x="1000.98" y="501.38" width="10.77" height="29.62"/>
        <rect class="cls-3" x="894.31" y="547.55" width="10.77" height="29.62"/>
        <rect class="cls-4" x="915.64" y="547.55" width="10.77" height="29.62"/>
        <rect class="cls-3" x="936.98" y="547.55" width="10.77" height="29.62"/>
        <rect class="cls-4" x="958.31" y="547.55" width="10.77" height="29.62"/>
        <rect class="cls-3" x="979.65" y="547.55" width="10.77" height="29.62"/>
        <rect class="cls-3" x="1000.98" y="547.55" width="10.77" height="29.62"/>
        <rect class="cls-3" x="894.31" y="593.72" width="10.77" height="29.62"/>
        <rect class="cls-3" x="915.64" y="593.72" width="10.77" height="29.62"/>
        <rect class="cls-3" x="936.98" y="593.72" width="10.77" height="29.62"/>
        <rect class="cls-3" x="958.31" y="593.72" width="10.77" height="29.62"/>
        <rect class="cls-3" x="979.65" y="593.72" width="10.77" height="29.62"/>
        <rect class="cls-4" x="1000.98" y="593.72" width="10.77" height="29.62"/>
        <rect class="cls-3" x="894.31" y="639.9" width="10.77" height="29.62"/>
        <rect class="cls-4" x="915.64" y="639.9" width="10.77" height="29.62"/>
        <rect class="cls-4" x="936.98" y="639.9" width="10.77" height="29.62"/>
        <rect class="cls-3" x="958.31" y="639.9" width="10.77" height="29.62"/>
        <rect class="cls-3" x="979.65" y="639.9" width="10.77" height="29.62"/>
        <rect class="cls-3" x="1000.98" y="639.9" width="10.77" height="29.62"/>
        <rect class="cls-3" x="894.31" y="686.07" width="10.77" height="29.62"/>
        <rect class="cls-3" x="915.64" y="686.07" width="10.77" height="29.62"/>
        <rect class="cls-3" x="936.98" y="686.07" width="10.77" height="29.62"/>
        <rect class="cls-3" x="958.31" y="686.07" width="10.77" height="29.62"/>
        <rect class="cls-4" x="979.65" y="686.07" width="10.77" height="29.62"/>
        <rect class="cls-3" x="1000.98" y="686.07" width="10.77" height="29.62"/>
        <rect class="cls-3" x="894.31" y="732.24" width="10.77" height="29.62"/>
        <rect class="cls-4" x="915.64" y="732.24" width="10.77" height="29.62"/>
        <rect class="cls-3" x="936.98" y="732.24" width="10.77" height="29.62"/>
        <rect class="cls-3" x="958.31" y="732.24" width="10.77" height="29.62"/>
        <rect class="cls-3" x="979.65" y="732.24" width="10.77" height="29.62"/>
        <rect class="cls-3" x="1000.98" y="732.24" width="10.77" height="29.62"/>
        <rect class="cls-3" x="894.31" y="778.41" width="10.77" height="29.62"/>
        <rect class="cls-3" x="915.64" y="778.41" width="10.77" height="29.62"/>
        <rect class="cls-3" x="936.98" y="778.41" width="10.77" height="29.62"/>
        <rect class="cls-4" x="958.31" y="778.41" width="10.77" height="29.62"/>
        <rect class="cls-3" x="979.65" y="778.41" width="10.77" height="29.62"/>
        <rect class="cls-4" x="1000.98" y="778.41" width="10.77" height="29.62"/>
        <rect class="cls-4" x="894.31" y="824.58" width="10.77" height="29.62"/>
        <rect class="cls-3" x="915.64" y="824.58" width="10.77" height="29.62"/>
        <rect class="cls-4" x="936.98" y="824.58" width="10.77" height="29.62"/>
        <rect class="cls-3" x="958.31" y="824.58" width="10.77" height="29.62"/>
        <rect class="cls-3" x="979.65" y="824.58" width="10.77" height="29.62"/>
        <rect class="cls-3" x="1000.98" y="824.58" width="10.77" height="29.62"/>
      </g>
      <g>
        <rect class="cls-3" x="468.1" y="361.83" width="228.99" height="477.65"/>
        <rect class="cls-3" x="461.6" y="353.61" width="242" height="13.5"/>
        <rect class="cls-3" x="475.8" y="336.33" width="213.59" height="64.17"/>
        <rect class="cls-3" x="492.15" y="310.08" width="84.58" height="70.11"/>
        <polygon class="cls-3" points="541.1 329.84 492.15 329.84 492.15 292.93 527.26 292.93 541.1 329.84"/>
        <rect class="cls-3" x="511.88" y="262.29" width="4.74" height="82.21"/>
        <path class="cls-3" d="m518.51,258.03c0,2.35-1.91,4.26-4.26,4.26s-4.26-1.91-4.26-4.26,1.91-4.26,4.26-4.26,4.26,1.91,4.26,4.26Z"/>
      </g>
      <polygon class="cls-3" points="2593.34 875.84 2342.68 875.84 2311.4 173.56 2593.34 232.09 2593.34 875.84"/>
      <polygon class="cls-3" points="1499.76 474.78 1499.76 239.99 1460.45 239.99 1460.45 177.1 1446.41 177.1 1446.41 84.86 1369.03 84.86 1369.03 17.07 1362.14 17.07 1362.14 84.86 1346.99 84.86 1346.99 0 1340.1 0 1340.1 84.86 1291.19 84.86 1291.19 239.99 1265.92 239.99 1265.92 474.78 1244.26 474.78 1244.26 902.42 1514.99 902.42 1514.99 474.78 1499.76 474.78"/>
    </g>
    <rect class="cls-3" x="148.07" y="867.13" width="2994.9" height="71.23"/>
    <polygon class="cls-3" points="1910.96 920.91 1778.35 920.91 1830.02 655.34 1910.96 655.34 1910.96 920.91"/>
    <g>
      <rect class="cls-1" x="40.62" y="931.25" width="3144.51" height="112.32"/>
      <polygon class="cls-1" points="1802.28 429.48 1802.28 311.81 1759.7 311.81 1759.7 267 1736.92 267 1736.92 229.37 1728.92 229.37 1728.92 164.86 1726.86 164.86 1726.86 229.37 1718.86 229.37 1718.86 267 1696.08 267 1696.08 311.81 1653.82 311.81 1653.82 429.48 1645.04 429.48 1645.04 643.13 1579.52 643.13 1579.52 886.68 1645.04 886.68 1710.56 886.68 1810.74 886.68 1810.74 429.48 1802.28 429.48"/>
      <polygon class="cls-1" points="2047.01 564.66 1840.89 564.66 1840.89 568.41 1850.22 568.41 1850.22 916.92 2037.68 916.92 2037.68 568.41 2047.01 568.41 2047.01 564.66"/>
      <rect class="cls-1" x="924.4" y="651.47" width="182.74" height="290.32"/>
      <rect class="cls-1" x="582.6" y="800.21" width="314.28" height="141.57"/>
      <rect class="cls-1" x="751.05" y="483.91" width="69" height="347.66"/>
      <rect class="cls-1" x="766.29" y="391.17" width="3.58" height="189.06"/>
      <rect class="cls-1" x="777.93" y="405.51" width="3.58" height="189.07"/>
      <rect class="cls-1" x="756.37" y="462.41" width="42.17" height="46.59"/>
      <rect class="cls-1" x="884.56" y="703.44" width="120.07" height="238.35"/>
      <rect class="cls-1" x="1136.77" y="451.21" width="225.39" height="490.58"/>
      <rect class="cls-1" x="1158.91" y="434.35" width="181.1" height="81.71"/>
      <rect class="cls-1" x="1119.29" y="461.48" width="260.33" height="5.74"/>
      <rect class="cls-1" x="1095.93" y="694.03" width="106.2" height="247.76"/>
      <rect class="cls-1" x="335.29" y="684.63" width="121.86" height="257.16"/>
      <g>
        <rect class="cls-1" x="374.71" y="614.73" width="242.83" height="327.06"/>
        <rect class="cls-1" x="360.55" y="602.19" width="263.27" height="12.54"/>
        <rect class="cls-1" x="385.47" y="568.14" width="106.71" height="66.31"/>
        <rect class="cls-1" x="527.04" y="568.14" width="17.92" height="40.32"/>
        <rect class="cls-1" x="562.88" y="568.14" width="19.71" height="40.32"/>
      </g>
      <rect class="cls-1" x="268.98" y="842.33" width="127.24" height="99.46"/>
      <rect class="cls-1" x="220.92" y="800.21" width="60.25" height="141.57"/>
      <rect class="cls-1" x="148.07" y="892.06" width="102.97" height="49.73"/>
      <rect class="cls-1" x="1340.01" y="831.58" width="1268.84" height="110.21"/>
      <path class="cls-1" d="m2507.53,526.49c-7.99,0-14.54,6.15-15.19,13.97l-17.86-.58c.05-1.75.07-3.5.07-5.26,0-22.23-3.84-43.86-11.19-64.15l14.92-5.49c2.34,5.41,7.73,9.19,14,9.19,8.42,0,15.25-6.83,15.25-15.25s-6.83-15.25-15.25-15.25-15.25,6.83-15.25,15.25c0,1.55.23,3.05.67,4.47l-14.92,5.49c-8.5-22.8-21.46-43.86-38.43-62.11l11.67-10.94c2.74,2.61,6.44,4.22,10.53,4.22,8.42,0,15.25-6.83,15.25-15.25s-6.83-15.25-15.25-15.25-15.25,6.83-15.25,15.25c0,3.73,1.34,7.14,3.56,9.79l-11.67,10.94c-1.2-1.27-2.42-2.53-3.67-3.77-17.68-17.68-38.25-31.4-60.66-40.72l6.42-15.64c1.46.46,3.01.71,4.62.71,8.42,0,15.25-6.83,15.25-15.25s-6.83-15.25-15.25-15.25-15.25,6.83-15.25,15.25c0,6.21,3.72,11.55,9.05,13.93l-6.41,15.6c-20.05-8.13-41.53-12.75-63.68-13.55l.69-21.37c.16,0,.32.01.48.01,8.42,0,15.25-6.83,15.25-15.25s-6.83-15.25-15.25-15.25-15.25,6.83-15.25,15.25c0,7.68,5.68,14.03,13.07,15.09l-.7,21.46c-1.75-.05-3.5-.07-5.26-.07-21.33,0-42.11,3.53-61.69,10.31l-6.15-17.44c5.55-2.28,9.45-7.74,9.45-14.1,0-8.42-6.83-15.25-15.25-15.25s-15.25,6.83-15.25,15.25,6.83,15.25,15.25,15.25c1.46,0,2.86-.21,4.2-.59l6.15,17.45c-23.74,8.47-45.66,21.74-64.56,39.33l-11.14-11.89c2.49-2.71,4.02-6.33,4.02-10.31,0-8.42-6.83-15.25-15.25-15.25s-15.25,6.83-15.25,15.25,6.83,15.25,15.25,15.25c3.84,0,7.34-1.42,10.02-3.76l11.12,11.87c-1.27,1.2-2.53,2.42-3.77,3.67-15.72,15.72-28.31,33.74-37.46,53.3l-14.16-6.54c.51-1.53.8-3.16.8-4.86,0-8.42-6.83-15.25-15.25-15.25s-15.25,6.83-15.25,15.25,6.83,15.25,15.25,15.25c6.12,0,11.4-3.61,13.82-8.82l14.08,6.5c-10.1,22.12-15.83,46.17-16.73,71.07l-18.18-.59c-.22-8.22-6.96-14.82-15.24-14.82s-15.25,6.83-15.25,15.25,6.83,15.25,15.25,15.25,14.54-6.15,15.19-13.98l18.17.59c-.05,1.75-.07,3.5-.07,5.26,0,22.23,3.84,43.86,11.19,64.15l-14.92,5.49c-2.34-5.41-7.73-9.19-14-9.19-8.42,0-15.25,6.83-15.25,15.25s6.83,15.25,15.25,15.25,15.25-6.83,15.25-15.25c0-1.55-.23-3.05-.67-4.47l14.92-5.49c8.5,22.8,21.46,43.86,38.43,62.11l-11.67,10.94c-2.74-2.61-6.44-4.22-10.53-4.22-8.42,0-15.25,6.83-15.25,15.25s6.83,15.25,15.25,15.25,15.25-6.83,15.25-15.25c0-3.73-1.34-7.14-3.56-9.79l11.67-10.94c1.2,1.27,2.42,2.53,3.66,3.77,11.9,11.9,25.13,22.01,39.34,30.19l-91.94,169.46h-16.5v4.84h-8.08v9.62h420.08v-9.62h-8.08v-4.84h-16.5l-91.94-169.46c12.25-7.05,23.76-15.53,34.33-25.37l14.9,15.9c-3.2,2.8-5.22,6.9-5.22,11.48,0,8.42,6.83,15.25,15.25,15.25s15.25-6.83,15.25-15.25-6.83-15.25-15.25-15.25c-3.23,0-6.22,1.01-8.69,2.72l-15-16.01c1.27-1.2,2.53-2.42,3.77-3.66,15.72-15.72,28.31-33.74,37.46-53.3l16.59,7.66c-.3,1.2-.46,2.45-.46,3.73,0,8.42,6.83,15.25,15.25,15.25s15.25-6.83,15.25-15.25-6.83-15.25-15.25-15.25c-6.53,0-12.1,4.11-14.28,9.88l-16.39-7.57c10.1-22.12,15.83-46.17,16.73-71.07l17.86.58c.22,8.23,6.95,14.84,15.24,14.84s15.25-6.83,15.25-15.25-6.83-15.25-15.25-15.25Zm-38.06,8.13c0,1.7-.03,3.4-.07,5.09l-52.6-1.71c.03-1.12.04-2.25.04-3.38,0-15.5-2.73-30.38-7.72-44.18l49.48-18.22c7.15,19.74,10.88,40.78,10.88,62.4Zm-55.22,3.3l-117.35-3.81c-.04-.77-.16-1.51-.36-2.22l110.18-40.57c4.89,13.53,7.57,28.11,7.57,43.3,0,1.1-.01,2.2-.04,3.3Zm-255.17-6.6l117.35,3.81c.04.77.16,1.51.36,2.22l-110.18,40.57c-4.89-13.53-7.57-28.11-7.57-43.3,0-1.1.01-2.2.04-3.3Zm135.62-3.07l85.63-80.24c11.11,12,19.94,26.14,25.81,41.71l-110.18,40.56c-.34-.73-.77-1.42-1.26-2.04Zm-1.16-1.24c-.66-.6-1.41-1.11-2.21-1.52l44.6-108.61c16.44,6.9,31.14,17.15,43.24,29.89l-85.63,80.24Zm-3.78-2.17c-.62-.2-1.26-.33-1.92-.41l3.81-117.34c15.04.58,29.42,3.78,42.7,9.15l-44.6,108.6Zm-3.61-.46c-.72.04-1.41.14-2.08.32l-39.03-110.73c13.05-4.52,27.06-6.98,41.63-6.98,1.1,0,2.2.01,3.3.04l-3.81,117.35Zm-3.68.89c-.78.35-1.51.8-2.17,1.32l-80.24-85.63c12.43-11.5,27.14-20.57,43.38-26.43l39.03,110.73Zm-3.41,2.48c-.5.56-.94,1.17-1.32,1.83l-106.59-49.2c6.8-14.43,16.23-27.39,27.66-38.25l80.24,85.63Zm-2.03,3.36c-.27.74-.46,1.52-.55,2.34l-117.34-3.81c.66-16.96,4.63-33.08,11.3-47.73l106.59,49.21Zm.34,7.84c.27.59.6,1.15.98,1.67l-.7,1.29-84.65,79.32c-11.11-12-19.94-26.14-25.81-41.71l110.18-40.57Zm-2.28,7.68l-53.15,97.96c-10.27-6.07-19.62-13.52-27.79-22.12l80.93-75.84Zm5.78-3.55c.36.25.74.47,1.13.67l-44.6,108.61c-4.3-1.8-8.47-3.84-12.51-6.09l55.98-103.19Zm2.69,1.32c.62.2,1.26.33,1.92.41l-3.81,117.34c-15.04-.58-29.42-3.78-42.7-9.15l44.6-108.6Zm3.1,117.85c-1.1,0-2.2-.01-3.3-.04l3.81-117.35c.72-.04,1.41-.14,2.08-.32l39.03,110.73c-13.05,4.52-27.06,6.98-41.63,6.98Zm4.19-118.28c.56-.25,1.1-.55,1.6-.9l55.98,103.19c-5.91,3.29-12.11,6.12-18.55,8.44l-39.03-110.74Zm9.42,6.41l72.99,77.89c-6.68,6.18-14.01,11.65-21.88,16.3l-51.1-94.19Zm-3.19-5.88l-2.11-3.89c.22-.3.42-.62.61-.95l106.59,49.2c-6.8,14.43-16.23,27.39-27.66,38.25l-77.42-82.62Zm-.79-6.37c.27-.74.46-1.53.55-2.34l117.34,3.81c-.66,16.96-4.63,33.08-11.3,47.73l-106.59-49.21Zm-59.86,116.57l-20.03,48.78c-6.11-2.54-12.07-5.42-17.88-8.62l25.15-46.36c4.12,2.29,8.38,4.36,12.76,6.2Zm1.57.64c13.55,5.48,28.23,8.74,43.59,9.34l-1.71,52.62c-21.54-.78-42.42-5.27-61.91-13.17l20.03-48.78Zm45.28,9.4c1.12.03,2.25.04,3.38.04,14.87,0,29.15-2.51,42.47-7.12l17.53,49.73c-19.04,6.59-39.25,10.03-60,10.03-1.7,0-3.4-.03-5.09-.07l1.71-52.6Zm47.45-7.64c6.57-2.37,12.89-5.26,18.92-8.6l25.15,46.36c-8.52,4.7-17.4,8.7-26.55,11.97l-17.53-49.73Zm127.27-186.47l-49.48,18.22c-5.99-15.9-15.01-30.32-26.34-42.57l38.46-36.04c16.5,17.75,29.1,38.22,37.37,60.39Zm-42.08-65.27c1.2,1.2,2.39,2.42,3.55,3.65l-38.45,36.03c-12.35-13-27.35-23.46-44.13-30.51l20.03-48.78c21.79,9.07,41.81,22.41,59,39.6Zm-60.57-40.25l-20.03,48.78c-13.55-5.48-28.23-8.74-43.59-9.34l1.71-52.62c21.54.78,42.42,5.27,61.91,13.17Zm-68.69-13.29c1.7,0,3.4.03,5.09.07l-1.71,52.6c-1.12-.03-2.25-.04-3.38-.04-14.87,0-29.15,2.51-42.47,7.12l-17.53-49.73c19.04-6.59,39.25-10.03,60-10.03Zm-61.6,10.59l17.53,49.73c-16.57,5.98-31.59,15.23-44.27,26.97l-36.04-38.46c18.38-17.1,39.7-30,62.78-38.24Zm-67.66,42.95c1.2-1.2,2.42-2.39,3.65-3.55l36.03,38.45c-11.67,11.09-21.29,24.31-28.23,39.04l-47.89-22.11c8.9-19.02,21.15-36.54,36.44-51.84Zm-37.15,53.37l47.88,22.1c-6.81,14.95-10.86,31.4-11.53,48.71l-52.62-1.71c.88-24.21,6.45-47.59,16.27-69.1Zm-16.39,75.89c0-1.7.03-3.4.07-5.09l52.6,1.71c-.03,1.12-.04,2.25-.04,3.38,0,15.5,2.73,30.38,7.72,44.18l-49.48,18.22c-7.15-19.74-10.88-40.78-10.88-62.4Zm11.46,63.99l49.48-18.22c5.99,15.9,15.01,30.32,26.34,42.57l-38.46,36.04c-16.5-17.74-29.1-38.22-37.37-60.39Zm42.08,65.27c-1.2-1.2-2.38-2.42-3.55-3.65l38.45-36.03c8.35,8.79,17.92,16.42,28.43,22.62l-25.16,46.38c-13.78-7.95-26.61-17.76-38.17-29.32Zm310.86,203.25h-363.21l91.04-167.8c5.97,3.29,12.1,6.25,18.37,8.86l-6.42,15.64c-1.46-.46-3.01-.71-4.62-.71-8.42,0-15.25,6.83-15.25,15.25s6.83,15.25,15.25,15.25,15.25-6.83,15.25-15.25c0-6.21-3.72-11.55-9.05-13.93l6.41-15.6c20.05,8.13,41.53,12.75,63.68,13.55l-.52,15.99c-8.26.19-14.9,6.94-14.9,15.24s6.83,15.25,15.25,15.25,15.25-6.83,15.25-15.25c0-7.97-6.11-14.51-13.91-15.19l.52-15.99c1.75.05,3.5.07,5.26.07,21.33,0,42.11-3.53,61.69-10.31l5.48,15.55c-5.19,2.43-8.78,7.7-8.78,13.81,0,8.42,6.83,15.25,15.25,15.25s15.25-6.83,15.25-15.25-6.83-15.25-15.25-15.25c-1.71,0-3.36.29-4.89.81l-5.45-15.47c9.4-3.36,18.52-7.46,27.28-12.3l91.04,167.8Zm-90.51-173.93l-25.16-46.38c8.07-4.76,15.58-10.36,22.41-16.68l36.04,38.46c-10.25,9.53-21.41,17.76-33.28,24.6Zm38.17-29.32c-1.2,1.2-2.42,2.39-3.65,3.55l-36.03-38.45c11.67-11.09,21.29-24.31,28.23-39.04l47.89,22.11c-8.9,19.02-21.15,36.54-36.44,51.84Zm37.15-53.37l-47.88-22.1c6.81-14.95,10.86-31.4,11.53-48.71l52.62,1.71c-.88,24.21-6.45,47.59-16.27,69.1Z"/>
      <rect class="cls-1" x="2544.33" y="654.71" width="195.93" height="287.08"/>
      <rect class="cls-1" x="2711.59" y="766.32" width="195.93" height="173.85"/>
      <rect class="cls-1" x="1951.75" y="740.79" width="109.91" height="145.89"/>
      <rect class="cls-1" x="2642.3" y="381.69" width="138.59" height="560.1"/>
      <polygon class="cls-1" points="3009.08 941.79 2826.29 941.79 2826.29 614.73 2964.87 614.73 3009.08 941.79"/>
      <rect class="cls-1" x="2929.03" y="867.13" width="160.09" height="74.66"/>
      <rect class="cls-1" x="2745.05" y="264.68" width="4.78" height="152.21"/>
      <rect class="cls-1" x="2761.17" y="297.34" width="4.78" height="152.21"/>
      <rect class="cls-1" x="2730.41" y="318.35" width="4.78" height="152.21"/>
      <rect class="cls-1" x="2833.45" y="588.3" width="65.41" height="51.52"/>
      <rect class="cls-1" x="2840.62" y="569.93" width="51.07" height="28.96"/>
      <rect class="cls-1" x="2924.85" y="603.39" width="12.54" height="20.8"/>
      <rect class="cls-1" x="2941.83" y="584.41" width="17.92" height="39.79"/>
    </g>
    <g>
      <g>
        <rect class="cls-2" x="1951.2" y="508.04" width="166.14" height="535.53"/>
        <rect class="cls-2" x="1938.78" y="511.21" width="190.97" height="5.43"/>
        <rect class="cls-2" x="1943.95" y="586.43" width="180.63" height="5.41"/>
        <rect class="cls-2" x="1943.95" y="659.29" width="180.63" height="5.41"/>
        <rect class="cls-2" x="1943.95" y="732.14" width="180.63" height="5.41"/>
        <rect class="cls-2" x="1943.95" y="804.99" width="180.63" height="5.41"/>
        <rect class="cls-2" x="1943.95" y="877.84" width="180.63" height="5.41"/>
        <rect class="cls-2" x="1943.95" y="950.69" width="180.63" height="5.41"/>
        <rect class="cls-2" x="1932.47" y="496.41" width="203.6" height="14.8"/>
        <rect class="cls-5" x="1966.15" y="534.23" width="17.26" height="42.78"/>
        <rect class="cls-2" x="2004.76" y="534.23" width="17.26" height="42.78"/>
        <rect class="cls-2" x="2043.37" y="534.23" width="17.26" height="42.78"/>
        <rect class="cls-2" x="2081.99" y="534.23" width="17.26" height="42.78"/>
        <rect class="cls-2" x="1966.15" y="604.17" width="17.26" height="42.78"/>
        <rect class="cls-5" x="2004.76" y="604.17" width="17.26" height="42.78"/>
        <rect class="cls-2" x="2043.37" y="604.17" width="17.26" height="42.78"/>
        <rect class="cls-2" x="2081.99" y="604.17" width="17.26" height="42.78"/>
        <rect class="cls-2" x="1966.15" y="677.03" width="17.26" height="42.78"/>
        <rect class="cls-2" x="2004.76" y="677.03" width="17.26" height="42.78"/>
        <rect class="cls-2" x="2043.37" y="677.03" width="17.26" height="42.78"/>
        <rect class="cls-5" x="2081.99" y="677.03" width="17.26" height="42.78"/>
        <rect class="cls-2" x="1966.15" y="749.88" width="17.26" height="42.78"/>
        <rect class="cls-5" x="2004.76" y="749.88" width="17.26" height="42.78"/>
        <rect class="cls-5" x="2043.37" y="749.88" width="17.26" height="42.78"/>
        <rect class="cls-2" x="2081.99" y="749.88" width="17.26" height="42.78"/>
        <rect class="cls-5" x="1966.15" y="822.73" width="17.26" height="42.78"/>
        <rect class="cls-2" x="2004.76" y="822.73" width="17.26" height="42.78"/>
        <rect class="cls-2" x="2043.37" y="822.73" width="17.26" height="42.78"/>
        <rect class="cls-2" x="2081.99" y="822.73" width="17.26" height="42.78"/>
        <rect class="cls-2" x="1966.15" y="895.58" width="17.26" height="42.78"/>
        <rect class="cls-2" x="2004.76" y="895.58" width="17.26" height="42.78"/>
        <rect class="cls-5" x="2043.37" y="895.58" width="17.26" height="42.78"/>
        <rect class="cls-2" x="2081.99" y="895.58" width="17.26" height="42.78"/>
        <rect class="cls-2" x="1966.15" y="968.43" width="17.26" height="42.78"/>
        <rect class="cls-5" x="2004.76" y="968.43" width="17.26" height="42.78"/>
        <rect class="cls-2" x="2043.37" y="968.43" width="17.26" height="42.78"/>
        <rect class="cls-5" x="2081.99" y="968.43" width="17.26" height="42.78"/>
        <rect class="cls-2" x="1961.68" y="476" width="56.51" height="27.81"/>
        <rect class="cls-2" x="1957.85" y="475.21" width="64.18" height="4.75"/>
      </g>
      <g>
        <polygon class="cls-2" points="1713.07 1043.57 1491.75 1043.57 1491.75 534.74 1713.07 480.6 1713.07 1043.57"/>
        <rect class="cls-2" x="1482.03" y="525.78" width="19.45" height="517.78"/>
        <rect class="cls-2" x="1537.36" y="511.19" width="19.45" height="532.37"/>
        <rect class="cls-2" x="1592.69" y="496.04" width="19.45" height="547.53"/>
        <rect class="cls-2" x="1648.01" y="483.69" width="19.45" height="559.88"/>
        <rect class="cls-2" x="1703.34" y="470.56" width="19.45" height="573.01"/>
        <rect class="cls-5" x="1506.51" y="569.24" width="25.81" height="39.32"/>
        <rect class="cls-5" x="1561.84" y="569.24" width="25.81" height="39.32"/>
        <rect class="cls-2" x="1617.17" y="569.24" width="25.81" height="39.32"/>
        <rect class="cls-5" x="1672.5" y="569.24" width="25.81" height="39.32"/>
        <rect class="cls-2" x="1506.51" y="637.71" width="25.81" height="39.32"/>
        <rect class="cls-2" x="1561.84" y="637.71" width="25.81" height="39.32"/>
        <rect class="cls-5" x="1617.17" y="637.71" width="25.81" height="39.32"/>
        <rect class="cls-5" x="1672.5" y="637.71" width="25.81" height="39.32"/>
        <rect class="cls-5" x="1506.51" y="706.18" width="25.81" height="39.32"/>
        <rect class="cls-5" x="1561.84" y="706.18" width="25.81" height="39.32"/>
        <rect class="cls-5" x="1617.17" y="706.18" width="25.81" height="39.32"/>
        <rect class="cls-2" x="1672.5" y="706.18" width="25.81" height="39.32"/>
        <rect class="cls-5" x="1506.51" y="774.65" width="25.81" height="39.32"/>
        <rect class="cls-2" x="1561.84" y="774.65" width="25.81" height="39.32"/>
        <rect class="cls-5" x="1617.17" y="774.65" width="25.81" height="39.32"/>
        <rect class="cls-5" x="1672.5" y="774.65" width="25.81" height="39.32"/>
        <rect class="cls-5" x="1506.51" y="843.12" width="25.81" height="39.32"/>
        <rect class="cls-5" x="1561.84" y="843.12" width="25.81" height="39.32"/>
        <rect class="cls-2" x="1617.17" y="843.12" width="25.81" height="39.32"/>
        <rect class="cls-5" x="1672.5" y="843.12" width="25.81" height="39.32"/>
        <rect class="cls-2" x="1506.51" y="911.59" width="25.81" height="39.32"/>
        <rect class="cls-2" x="1561.84" y="911.59" width="25.81" height="39.32"/>
        <rect class="cls-5" x="1617.17" y="911.59" width="25.81" height="39.32"/>
        <rect class="cls-5" x="1672.5" y="911.59" width="25.81" height="39.32"/>
        <rect class="cls-5" x="1506.51" y="980.06" width="25.81" height="39.32"/>
        <rect class="cls-2" x="1561.84" y="980.06" width="25.81" height="39.32"/>
        <rect class="cls-5" x="1617.17" y="980.06" width="25.81" height="39.32"/>
        <rect class="cls-2" x="1672.5" y="980.06" width="25.81" height="39.32"/>
      </g>
      <polygon class="cls-2" points="860.41 559.11 860.41 564.4 855.15 564.4 855.15 579.45 947.75 579.45 947.75 1043.57 795.79 1043.57 795.79 603.67 795.79 579.45 795.79 564.4 790.27 564.4 790.27 559.11 860.41 559.11"/>
      <rect class="cls-2" x="1119.29" y="769.93" width="130.17" height="273.64"/>
      <g>
        <rect class="cls-2" x="551.97" y="707.2" width="105.81" height="336.37"/>
        <rect class="cls-2" x="636.81" y="777.29" width="115.31" height="266.28"/>
        <rect class="cls-2" x="590.03" y="693.7" width="46.78" height="40.25"/>
        <rect class="cls-2" x="644.73" y="772.9" width="122.91" height="9.85"/>
      </g>
      <rect class="cls-2" x="739.74" y="891.5" width="129.27" height="152.07"/>
      <rect class="cls-2" x="321.93" y="767.8" width="105.16" height="275.76"/>
      <rect class="cls-2" x="230.67" y="905.23" width="138.34" height="138.34"/>
      <rect class="cls-2" x="78.34" y="882.62" width="86.53" height="160.95"/>
      <rect class="cls-2" x="148.07" y="993.15" width="204.52" height="50.41"/>
      <rect class="cls-2" y="976.86" width="104.82" height="66.71"/>
      <rect class="cls-2" x="427.08" y="941.79" width="162.95" height="101.78"/>
      <rect class="cls-2" x="905.08" y="999.72" width="253.83" height="43.85"/>
      <rect class="cls-2" x="1355.11" y="999.72" width="253.83" height="43.85"/>
      <polygon class="cls-2" points="1149.03 871 1052.55 871 1011.75 1021.64 1149.03 1021.64 1149.03 871"/>
      <rect class="cls-2" x="1193.62" y="651.82" width="2.69" height="167.11"/>
      <rect class="cls-2" x="1207.06" y="708.37" width="3.58" height="98.61"/>
      <rect class="cls-2" x="1187.85" y="725.84" width="48.81" height="48.81"/>
      <rect class="cls-2" x="1179.61" y="722.05" width="64.65" height="4.37"/>
      <rect class="cls-2" x="1225.79" y="902.42" width="157.72" height="141.14"/>
      <rect class="cls-2" x="1353.34" y="747.05" width="101.33" height="272.33"/>
      <rect class="cls-2" x="1749.07" y="798.25" width="161.89" height="245.32"/>
      <rect class="cls-2" x="1698.31" y="953.17" width="184.57" height="90.39"/>
      <rect class="cls-2" x="1902" y="1011.21" width="120.02" height="32.35"/>
      <rect class="cls-2" x="2086.86" y="953.17" width="195.14" height="90.39"/>
      <g>
        <rect class="cls-2" x="2164.61" y="716.51" width="242.83" height="327.06" transform="translate(4572.05 1760.08) rotate(180)"/>
        <rect class="cls-2" x="2158.34" y="703.97" width="263.27" height="12.54" transform="translate(4579.94 1420.48) rotate(180)"/>
        <rect class="cls-2" x="2289.97" y="669.92" width="106.71" height="66.31" transform="translate(4686.66 1406.14) rotate(180)"/>
        <rect class="cls-2" x="2237.19" y="669.92" width="17.92" height="40.32" transform="translate(4492.3 1380.15) rotate(180)"/>
        <rect class="cls-2" x="2199.56" y="669.92" width="19.71" height="40.32" transform="translate(4418.83 1380.15) rotate(180)"/>
      </g>
      <g>
        <rect class="cls-2" x="2574.37" y="565.92" width="192.21" height="477.65" transform="translate(5340.95 1609.48) rotate(180)"/>
        <rect class="cls-2" x="2568.9" y="557.7" width="203.14" height="13.5" transform="translate(5340.95 1128.91) rotate(180)"/>
        <rect class="cls-2" x="2580.83" y="540.42" width="179.29" height="64.17" transform="translate(5340.95 1145.01) rotate(180)"/>
        <rect class="cls-2" x="2675.4" y="514.17" width="71" height="70.11" transform="translate(5421.79 1098.44) rotate(180)"/>
        <polygon class="cls-2" points="2705.31 533.93 2746.4 533.93 2746.4 497.02 2716.93 497.02 2705.31 533.93"/>
        <rect class="cls-2" x="2725.85" y="466.38" width="3.98" height="82.21" transform="translate(5455.69 1014.98) rotate(180)"/>
        <path class="cls-2" d="m2724.27,462.12c0,2.35,1.6,4.26,3.58,4.26s3.58-1.91,3.58-4.26-1.6-4.26-3.58-4.26-3.58,1.91-3.58,4.26Z"/>
      </g>
      <rect class="cls-2" x="2740.27" y="846.38" width="86.02" height="197.19"/>
      <rect class="cls-2" x="2495.24" y="750.24" width="98.1" height="293.32"/>
      <polygon class="cls-2" points="2544.33 1043.57 2406.14 1043.57 2406.14 886.68 2522.78 938.36 2544.33 1043.57"/>
      <rect class="cls-2" x="2798.04" y="958.36" width="211.04" height="85.2"/>
      <rect class="cls-2" x="2931.12" y="703.44" width="122.59" height="340.12"/>
      <rect class="cls-2" x="3025.04" y="980.06" width="203.1" height="63.51"/>
      <rect class="cls-2" x="2924.85" y="697.22" width="134.47" height="11.15"/>
      <rect class="cls-2" x="3034.6" y="649.22" width="2.69" height="68.54"/>
      <rect class="cls-2" x="3016.68" y="657.9" width="2.69" height="54.98"/>
      <polygon class="cls-2" points="3099.11 831.58 3044.45 831.58 3044.45 987.41 3122.41 987.41 3099.11 831.58"/>
    </g>
  </g>
</svg>